<mxfile host="Electron" agent="Mozilla/5.0 (Windows NT 10.0; Win64; x64) AppleWebKit/537.36 (KHTML, like Gecko) draw.io/27.0.9 Chrome/134.0.6998.205 Electron/35.4.0 Safari/537.36" version="27.0.9">
  <diagram name="Page-1" id="eWOV-7od9nL2Jf6N9at1">
    <mxGraphModel dx="1425" dy="1655" grid="1" gridSize="10" guides="1" tooltips="1" connect="1" arrows="1" fold="1" page="1" pageScale="1" pageWidth="1169" pageHeight="827" math="0" shadow="0">
      <root>
        <mxCell id="0" />
        <mxCell id="1" parent="0" />
        <mxCell id="60ng0Yz7-YsnfkinpBJV-3" value="Raspberry Pi" style="label;whiteSpace=wrap;html=1;align=center;verticalAlign=bottom;spacingLeft=0;spacingBottom=4;imageAlign=center;imageVerticalAlign=top;image=https://cdn4.iconfinder.com/data/icons/logos-and-brands/512/272_Raspberry_Pi_logo-1024.png;" vertex="1" parent="1">
          <mxGeometry x="320" y="320" width="100" height="70" as="geometry" />
        </mxCell>
        <mxCell id="60ng0Yz7-YsnfkinpBJV-6" value="Docker" style="label;whiteSpace=wrap;html=1;align=center;verticalAlign=bottom;spacingLeft=0;spacingBottom=4;imageAlign=center;imageVerticalAlign=top;image=https://cdn3.iconfinder.com/data/icons/social-media-2169/24/social_media_social_media_logo_docker-1024.png;" vertex="1" parent="1">
          <mxGeometry x="450" y="277.5" width="180" height="192.5" as="geometry" />
        </mxCell>
        <mxCell id="60ng0Yz7-YsnfkinpBJV-7" value="" style="endArrow=none;html=1;rounded=0;exitX=0;exitY=0.5;exitDx=0;exitDy=0;startArrow=oval;startFill=0;endFill=0;" edge="1" parent="1" source="60ng0Yz7-YsnfkinpBJV-22">
          <mxGeometry width="50" height="50" relative="1" as="geometry">
            <mxPoint x="427.5" y="324.83" as="sourcePoint" />
            <mxPoint x="420" y="340" as="targetPoint" />
          </mxGeometry>
        </mxCell>
        <mxCell id="60ng0Yz7-YsnfkinpBJV-8" value=":446" style="edgeLabel;html=1;align=center;verticalAlign=middle;resizable=0;points=[];" vertex="1" connectable="0" parent="60ng0Yz7-YsnfkinpBJV-7">
          <mxGeometry x="0.35" relative="1" as="geometry">
            <mxPoint x="8" as="offset" />
          </mxGeometry>
        </mxCell>
        <mxCell id="60ng0Yz7-YsnfkinpBJV-10" value="" style="endArrow=none;html=1;rounded=0;exitX=0;exitY=0.5;exitDx=0;exitDy=0;startArrow=oval;startFill=0;endFill=0;" edge="1" parent="1" source="60ng0Yz7-YsnfkinpBJV-23">
          <mxGeometry width="50" height="50" relative="1" as="geometry">
            <mxPoint x="430" y="364.83" as="sourcePoint" />
            <mxPoint x="420" y="370" as="targetPoint" />
          </mxGeometry>
        </mxCell>
        <mxCell id="60ng0Yz7-YsnfkinpBJV-11" value=":1883" style="edgeLabel;html=1;align=center;verticalAlign=middle;resizable=0;points=[];" vertex="1" connectable="0" parent="60ng0Yz7-YsnfkinpBJV-10">
          <mxGeometry x="0.35" relative="1" as="geometry">
            <mxPoint x="8" as="offset" />
          </mxGeometry>
        </mxCell>
        <mxCell id="60ng0Yz7-YsnfkinpBJV-12" value="" style="endArrow=oval;html=1;rounded=0;exitX=0;exitY=0.5;exitDx=0;exitDy=0;startArrow=none;startFill=0;endFill=0;" edge="1" parent="1">
          <mxGeometry width="50" height="50" relative="1" as="geometry">
            <mxPoint x="660" y="399.52" as="sourcePoint" />
            <mxPoint x="600" y="399.52" as="targetPoint" />
          </mxGeometry>
        </mxCell>
        <mxCell id="60ng0Yz7-YsnfkinpBJV-13" value=":3000" style="edgeLabel;html=1;align=center;verticalAlign=middle;resizable=0;points=[];" vertex="1" connectable="0" parent="60ng0Yz7-YsnfkinpBJV-12">
          <mxGeometry x="0.35" relative="1" as="geometry">
            <mxPoint x="8" as="offset" />
          </mxGeometry>
        </mxCell>
        <mxCell id="60ng0Yz7-YsnfkinpBJV-22" value="Fileshare" style="rounded=1;whiteSpace=wrap;html=1;" vertex="1" parent="1">
          <mxGeometry x="480" y="330" width="120" height="20" as="geometry" />
        </mxCell>
        <mxCell id="60ng0Yz7-YsnfkinpBJV-23" value="MQTT Broker" style="rounded=1;whiteSpace=wrap;html=1;" vertex="1" parent="1">
          <mxGeometry x="480" y="360" width="120" height="20" as="geometry" />
        </mxCell>
        <mxCell id="60ng0Yz7-YsnfkinpBJV-25" value="Web UI" style="rounded=1;whiteSpace=wrap;html=1;" vertex="1" parent="1">
          <mxGeometry x="480" y="390" width="120" height="20" as="geometry" />
        </mxCell>
        <mxCell id="60ng0Yz7-YsnfkinpBJV-33" value="User" style="label;whiteSpace=wrap;html=1;align=center;verticalAlign=bottom;spacingLeft=0;spacingBottom=4;imageAlign=center;imageVerticalAlign=top;image=https://cdn4.iconfinder.com/data/icons/essential-app-1/16/mobile-phone-smart-screen-1024.png;" vertex="1" parent="1">
          <mxGeometry x="660" y="380" width="100" height="70" as="geometry" />
        </mxCell>
        <mxCell id="60ng0Yz7-YsnfkinpBJV-42" value="" style="endArrow=oval;html=1;rounded=0;exitX=0;exitY=0.5;exitDx=0;exitDy=0;startArrow=none;startFill=0;endFill=0;" edge="1" parent="1">
          <mxGeometry width="50" height="50" relative="1" as="geometry">
            <mxPoint x="660" y="430.36" as="sourcePoint" />
            <mxPoint x="600" y="430.36" as="targetPoint" />
          </mxGeometry>
        </mxCell>
        <mxCell id="60ng0Yz7-YsnfkinpBJV-24" value="Notifier" style="rounded=1;whiteSpace=wrap;html=1;" vertex="1" parent="1">
          <mxGeometry x="480" y="420" width="120" height="21" as="geometry" />
        </mxCell>
        <mxCell id="60ng0Yz7-YsnfkinpBJV-65" style="edgeStyle=orthogonalEdgeStyle;rounded=0;orthogonalLoop=1;jettySize=auto;html=1;exitX=0.25;exitY=1;exitDx=0;exitDy=0;entryX=0;entryY=0.5;entryDx=0;entryDy=0;endArrow=none;startFill=0;" edge="1" parent="1" source="60ng0Yz7-YsnfkinpBJV-45" target="60ng0Yz7-YsnfkinpBJV-46">
          <mxGeometry relative="1" as="geometry" />
        </mxCell>
        <mxCell id="60ng0Yz7-YsnfkinpBJV-66" style="edgeStyle=orthogonalEdgeStyle;rounded=0;orthogonalLoop=1;jettySize=auto;html=1;exitX=0.25;exitY=1;exitDx=0;exitDy=0;entryX=0;entryY=0.5;entryDx=0;entryDy=0;endArrow=none;startFill=0;" edge="1" parent="1" source="60ng0Yz7-YsnfkinpBJV-45" target="60ng0Yz7-YsnfkinpBJV-50">
          <mxGeometry relative="1" as="geometry" />
        </mxCell>
        <mxCell id="60ng0Yz7-YsnfkinpBJV-67" style="edgeStyle=orthogonalEdgeStyle;rounded=0;orthogonalLoop=1;jettySize=auto;html=1;exitX=0.25;exitY=1;exitDx=0;exitDy=0;entryX=0;entryY=0.5;entryDx=0;entryDy=0;endArrow=none;startFill=0;" edge="1" parent="1" source="60ng0Yz7-YsnfkinpBJV-45" target="60ng0Yz7-YsnfkinpBJV-47">
          <mxGeometry relative="1" as="geometry" />
        </mxCell>
        <mxCell id="60ng0Yz7-YsnfkinpBJV-45" value="Raspberry Pi" style="label;whiteSpace=wrap;html=1;align=center;verticalAlign=bottom;spacingLeft=0;spacingBottom=4;imageAlign=center;imageVerticalAlign=top;image=https://cdn4.iconfinder.com/data/icons/logos-and-brands/512/272_Raspberry_Pi_logo-1024.png;" vertex="1" parent="1">
          <mxGeometry x="200" y="-440" width="170" height="90" as="geometry" />
        </mxCell>
        <mxCell id="60ng0Yz7-YsnfkinpBJV-46" value="Button" style="label;whiteSpace=wrap;html=1;align=center;verticalAlign=bottom;spacingLeft=0;spacingBottom=4;imageAlign=center;imageVerticalAlign=top;image=https://cdn3.iconfinder.com/data/icons/ilb/Perspective%20Button%20-%20Stop.png;" vertex="1" parent="1">
          <mxGeometry x="270" y="-330" width="100" height="70" as="geometry" />
        </mxCell>
        <mxCell id="60ng0Yz7-YsnfkinpBJV-47" value="Camera" style="label;whiteSpace=wrap;html=1;align=center;verticalAlign=bottom;spacingLeft=0;spacingBottom=4;imageAlign=center;imageVerticalAlign=top;image=https://cdn3.iconfinder.com/data/icons/spring-2-1/30/Camera-1024.png;" vertex="1" parent="1">
          <mxGeometry x="270" y="-150" width="100" height="70" as="geometry" />
        </mxCell>
        <mxCell id="60ng0Yz7-YsnfkinpBJV-50" value="Speaker" style="label;whiteSpace=wrap;html=1;align=center;verticalAlign=bottom;spacingLeft=0;spacingBottom=4;imageAlign=center;imageVerticalAlign=top;image=https://cdn0.iconfinder.com/data/icons/phosphor-regular-vol-4/256/speaker-high-1024.png;" vertex="1" parent="1">
          <mxGeometry x="270" y="-240" width="100" height="70" as="geometry" />
        </mxCell>
        <mxCell id="60ng0Yz7-YsnfkinpBJV-56" style="edgeStyle=orthogonalEdgeStyle;rounded=0;orthogonalLoop=1;jettySize=auto;html=1;exitX=0.75;exitY=0;exitDx=0;exitDy=0;entryX=0.75;entryY=1;entryDx=0;entryDy=0;" edge="1" parent="1" source="60ng0Yz7-YsnfkinpBJV-52" target="60ng0Yz7-YsnfkinpBJV-53">
          <mxGeometry relative="1" as="geometry" />
        </mxCell>
        <mxCell id="60ng0Yz7-YsnfkinpBJV-58" value="subscribe" style="edgeLabel;html=1;align=center;verticalAlign=middle;resizable=0;points=[];" vertex="1" connectable="0" parent="60ng0Yz7-YsnfkinpBJV-56">
          <mxGeometry x="-0.0457" relative="1" as="geometry">
            <mxPoint as="offset" />
          </mxGeometry>
        </mxCell>
        <mxCell id="60ng0Yz7-YsnfkinpBJV-57" style="edgeStyle=orthogonalEdgeStyle;rounded=0;orthogonalLoop=1;jettySize=auto;html=1;exitX=0.5;exitY=1;exitDx=0;exitDy=0;entryX=0.5;entryY=0;entryDx=0;entryDy=0;" edge="1" parent="1" source="60ng0Yz7-YsnfkinpBJV-52" target="60ng0Yz7-YsnfkinpBJV-54">
          <mxGeometry relative="1" as="geometry" />
        </mxCell>
        <mxCell id="60ng0Yz7-YsnfkinpBJV-60" value="Push to Channel" style="edgeLabel;html=1;align=center;verticalAlign=middle;resizable=0;points=[];" vertex="1" connectable="0" parent="60ng0Yz7-YsnfkinpBJV-57">
          <mxGeometry x="-0.1143" relative="1" as="geometry">
            <mxPoint as="offset" />
          </mxGeometry>
        </mxCell>
        <mxCell id="60ng0Yz7-YsnfkinpBJV-52" value="Notifier" style="label;whiteSpace=wrap;html=1;align=center;verticalAlign=bottom;spacingLeft=0;spacingBottom=4;imageAlign=center;imageVerticalAlign=top;image=https://cdn1.iconfinder.com/data/icons/youtuber/256/bell-notifications-notice-notify-alert-1024.png;" vertex="1" parent="1">
          <mxGeometry x="790" y="-560" width="100" height="70" as="geometry" />
        </mxCell>
        <mxCell id="60ng0Yz7-YsnfkinpBJV-55" style="edgeStyle=orthogonalEdgeStyle;rounded=0;orthogonalLoop=1;jettySize=auto;html=1;exitX=0.25;exitY=1;exitDx=0;exitDy=0;entryX=0.25;entryY=0;entryDx=0;entryDy=0;" edge="1" parent="1" source="60ng0Yz7-YsnfkinpBJV-53" target="60ng0Yz7-YsnfkinpBJV-52">
          <mxGeometry relative="1" as="geometry" />
        </mxCell>
        <mxCell id="60ng0Yz7-YsnfkinpBJV-59" value="notify" style="edgeLabel;html=1;align=center;verticalAlign=middle;resizable=0;points=[];" vertex="1" connectable="0" parent="60ng0Yz7-YsnfkinpBJV-55">
          <mxGeometry x="-0.1829" y="-1" relative="1" as="geometry">
            <mxPoint as="offset" />
          </mxGeometry>
        </mxCell>
        <mxCell id="60ng0Yz7-YsnfkinpBJV-53" value="MQTT Broker" style="label;whiteSpace=wrap;html=1;align=center;verticalAlign=bottom;spacingLeft=0;spacingBottom=4;imageAlign=center;imageVerticalAlign=top;image=https://cdn.jsdelivr.net/gh/homarr-labs/dashboard-icons/svg/mqtt.svg;" vertex="1" parent="1">
          <mxGeometry x="790" y="-680" width="100" height="70" as="geometry" />
        </mxCell>
        <mxCell id="60ng0Yz7-YsnfkinpBJV-54" value="Pushbullet API" style="label;whiteSpace=wrap;html=1;align=center;verticalAlign=bottom;spacingLeft=0;spacingBottom=4;imageAlign=center;imageVerticalAlign=top;image=https://icons.iconarchive.com/icons/blackvariant/button-ui-requests-5/512/PushBullet-icon.png;" vertex="1" parent="1">
          <mxGeometry x="790" y="-440" width="100" height="70" as="geometry" />
        </mxCell>
      </root>
    </mxGraphModel>
  </diagram>
</mxfile>
